<svg xmlns="http://www.w3.org/2000/svg" width="500" height="500" viewBox="0 0 500 500">
  <style type="text/css">
    .st0{fill:#FFFFFF;}
    .st1{fill:#FF5635;}
  </style>
  <path class="st0" d="M416.8,500H87c-47,0-85.1-38.1-85.1-85.1V85.1C1.9,38.1,40,0,87,0h329.9c47,0,85.1,38.1,85.1,85.1V415
	C501.9,461.9,463.8,500,416.8,500z"/>
  <g>
    <path class="st1" d="M399.9,320.2c-16,0-30.9-7.3-40.8-19.9l-10.9-13.9l-10.3,14.4c-9.8,13.6-25.6,21.7-42.3,21.7
		c-10.8,0-21.1-3.3-29.9-9.5l-12-8.5l-7.2,12.7c-11.8,20.7-33.9,33.6-57.6,33.5c-22.2,0-42.8-11.1-55.1-29.6l-5.8-8.7l-9.8,3.7
		c-5.8,2.2-11.9,3.2-18.1,3.2c-28.6,0-51.9-23.4-51.9-52c0-21.5,13-40.5,33-48.3l8.6-3.4L89.5,205c0-21,11.6-40,30.2-54
		c-0.6-3.7-0.9-7.5-0.9-11.5c0-13.6,3.9-26.3,10.6-37.1C112.5,86.7,96,65.8,92.6,41.8c-1.1-8.1,4.5-15.5,12.5-16.6
		c0.7-0.1,1.4-0.1,2.1-0.1c7.2,0,13.5,5.3,14.5,12.7c2.1,15.2,14.3,30.6,28.1,43.4c11.4-7.8,25.2-12.3,40-12.3
		c31.8,0,58.8,21.2,67.7,50.2c12.5-3.8,25.8-5.7,39.5-5.7c60.3,0.1,109.3,38,109.2,84.6c0,2-0.1,4.2-0.4,6.7l-1.1,10.9l10.4,3.2
		c22,6.7,36.8,26.7,36.7,49.7C451.8,297,428.5,320.2,399.9,320.2z M189.8,89.3c-8.3,0-16.1,2-23,5.6c5,3.7,9.8,6.8,14,9.3
		c7,4.2,9.2,13.2,5,20.2c-2.8,4.6-7.7,7.2-12.7,7.2c-2.6,0-5.2-0.7-7.5-2.1c-4.4-2.7-11.8-7.3-20.1-13.7c-3.8,7.1-6,15.2-6,23.8
		c0,27.7,22.5,50.3,50.2,50.4c27.7,0,50.3-22.5,50.3-50.2C240,112,217.5,89.4,189.8,89.3z M166.2,367.7c0,0,4.2,41,5.4,60.7
		c0.4,7.5,5.3,10.9,8.2,11.7c2.8,0.7,8,0.7,10.4-0.5c3.4-1.6,6.6-2.9,6.8-12.1c0.4-17.2-4.1-57.1-4.1-57.1
		c7.3-0.3,14.4-1.5,21.2-3.4c0,0,1.5,59.2,2.7,67.4c1.3,8.3,7.3,10.2,12.8,10.2c5.7,0,12.3-3.1,12.2-12.3
		c-0.1-8.4-0.9-77.8-0.9-77.8c8-5.4,15.1-12,21.1-19.7c0.5,0.2,1,0.4,1.5,0.7c0,0-1.4,90.5-1,97.4c0.5,9.2,6.6,12.7,13.4,12.8
		c6.8,0,13.1-4.7,14.1-12.1c0.9-6.9,2.6-91.2,2.6-91.2c1,0,2,0.1,2.9,0.1c6.9,0,13.8-0.9,20.4-2.7c0,0-5.4,80.2-4.5,86.2
		c1.3,8.4,6.6,12.2,13.6,12.2c6.7,0,12.6-5.1,13.8-14.1c0.8-5.6,9.1-101.7,9.1-101.7c0.3-0.3,0.7-0.6,1-0.9
		c11.9,10.2,26.6,16.6,42.4,18.3l-17.1,109.3c-2.3,14.4-16,26.2-30.6,26.1l-184.3-0.2c-14.6,0-28.3-11.8-30.5-26.2l-17-110.4
		c1.9-0.3,3.9-0.6,5.8-1.1C130.3,352.3,147.3,362.9,166.2,367.7z"/>
  </g>
</svg>
